<svg width="86" height="66" viewBox="0 0 86 66" fill="none" xmlns="http://www.w3.org/2000/svg">
  <path d="M19.1238 1.87999H33.19V41.3075C33.19 59.075 24.6737 65.2775 11.0688 65.2775C7.73875 65.2775 3.47875 64.7225 0.703751 63.7962L2.27875 52.4112C4.22125 53.06 6.7225 53.5212 9.4975 53.5212C15.4225 53.5212 19.1238 50.8362 19.1238 41.2137V1.87999ZM45.4038 49.8237C49.105 51.7662 55.03 53.7125 61.045 53.7125C67.525 53.7125 70.9487 51.0275 70.9487 46.865C70.9487 43.07 67.9862 40.7562 60.49 38.165C50.125 34.4637 43.2775 28.7262 43.2775 19.5612C43.2775 8.91874 52.255 0.867493 66.8763 0.867493C74.0013 0.867493 79.0938 2.25499 82.795 4.01374L79.6488 15.305C77.2412 14.1012 72.7075 12.3425 66.6925 12.3425C60.5838 12.3425 57.6213 15.2112 57.6213 18.3575C57.6213 22.3362 61.045 24.095 69.19 27.2412C80.2037 31.3137 85.2925 37.0512 85.2925 45.935C85.2925 56.3937 77.335 65.2775 60.2125 65.2775C53.0875 65.2775 46.0525 63.335 42.535 61.3887L45.4038 49.8237Z" />
</svg>
