<svg width="108" height="98" viewBox="0 0 108 98" fill="none" xmlns="http://www.w3.org/2000/svg">
  <path d="M54 39.55C55.845 39.5501 57.6487 40.0961 59.184 41.1191C60.7194 42.1421 61.9178 43.5965 62.6283 45.2992C63.3388 47.0019 63.5297 48.8767 63.177 50.6876C62.8242 52.4986 61.9436 54.1647 60.646 55.4762C59.3483 56.7877 57.6917 57.686 55.8846 58.058C54.0775 58.43 52.2008 58.259 50.4907 57.5667C48.7805 56.8743 47.3135 55.6915 46.2741 54.1671C45.2348 52.6427 44.6697 50.8449 44.65 49C44.6434 47.7656 44.88 46.542 45.3464 45.399C45.8127 44.256 46.4996 43.2161 47.3678 42.3385C48.236 41.461 49.2686 40.7631 50.4066 40.2847C51.5445 39.8062 52.7656 39.5566 54 39.55ZM30.85 89C34 90.9 40.85 88 48.85 80.5C46.1762 77.4615 43.6563 74.2909 41.3 71C37.2671 70.5484 33.2614 69.8807 29.3 69C26.75 79.7 27.7 87.05 30.85 89ZM34.4 60.3L32.95 57.75C32.3848 59.1544 31.9006 60.5901 31.5 62.05C32.85 62.35 34.35 62.6 35.9 62.85L34.4 60.3ZM67.1 56.5L71.15 49L67.1 41.5C65.6 38.85 64 36.5 62.55 34.15C59.85 34 57 34 54 34C51 34 48.15 34 45.45 34C44 36.35 42.4 38.7 40.9 41.35L36.85 49L40.9 56.5C42.4 59.15 44 61.5 45.45 63.85C48.15 63.85 51 63.85 54 63.85C57 63.85 59.85 63.85 62.55 63.85C64 61.5 65.6 59.15 67.1 56.5ZM54 22.9C53.05 24 52.05 25.15 51.05 26.5H56.95C55.95 25.15 54.95 24 54 22.9ZM54 75.1C54.95 74 55.95 72.85 56.95 71.5H51.05C52.05 72.85 53.05 74 54 75.1ZM77.1 9.00002C74 7.10002 67.1 10 59.15 17.5C61.8238 20.5385 64.3437 23.7092 66.7 27C70.7292 27.3856 74.735 27.9865 78.7 28.8C81.25 18.1 80.3 10.75 77.1 8.80002M73.6 37.5L75.05 40.05C75.6152 38.6456 76.0994 37.2099 76.5 35.75C75.15 35.45 73.65 35.2 72.1 34.95L73.6 37.5ZM80.85 2.50002C88.2 6.70002 89 17.75 85.85 30.65C98.55 34.4 107.7 40.65 107.7 49.05C107.7 57.45 98.55 63.7 85.85 67.45C88.95 80.35 88.15 91.4 80.85 95.6C73.55 99.8 63.6 95 54 85.85C44.4 95 34.45 99.8 27.1 95.6C19.75 91.4 19 80.6 22.1 67.45C9.4 63.7 0.25 57.45 0.25 49.05C0.25 40.65 9.4 34.35 22.1 30.6C19 17.7 19.8 6.65002 27.1 2.45002C34.4 -1.74998 44.4 3.05002 54 12.2C63.6 3.05002 73.55 -1.74998 80.85 2.45002M79.4 49C81.1365 52.6807 82.6721 56.453 84 60.3C94.5 57.15 100.4 52.65 100.4 49C100.4 45.35 94.35 40.85 84 37.7C82.6721 41.5471 81.1365 45.3193 79.4 49ZM28.6 49C26.8635 45.3193 25.3279 41.5471 24 37.7C13.5 40.85 7.6 45.35 7.6 49C7.6 52.65 13.65 57.15 24 60.3C25.3279 56.453 26.8635 52.6807 28.6 49ZM73.6 60.3L72.1 62.85C73.65 62.85 75.15 62.35 76.5 62.05C76.0994 60.5901 75.6152 59.1544 75.05 57.75L73.6 60.3ZM59 80.5C66.95 88 74 90.9 76.95 89C79.9 87.1 81.1 79.9 78.55 69C74.585 69.8136 70.5792 70.4144 66.55 70.8C64.1992 74.1591 61.6792 77.3966 59 80.5ZM34.4 37.7L35.9 35.15C34.35 35.15 32.85 35.65 31.5 35.95C31.9006 37.4099 32.3848 38.8456 32.95 40.25L34.4 37.7ZM49 17.5C40.9 10 34 7.10002 30.85 9.00002C27.7 10.9 26.75 18.1 29.3 29C33.265 28.1865 37.2708 27.5856 41.3 27.2C43.6995 23.8375 46.2696 20.5999 49 17.5Z" />
</svg>
