<svg width="86" height="66" viewBox="0 0 86 66" fill="none" xmlns="http://www.w3.org/2000/svg">
  <path d="M64.5759 49.2591H75.2165V23.7101L63.2283 11.7221L55.7042 19.2465L64.5759 28.1186V49.2591ZM75.2447 54.5953H38.129L29.2569 45.7239L33.0193 41.9642L40.3469 49.2919H55.4232L40.5716 34.4118L44.3617 30.6242L59.2134 45.4763V30.3996L51.914 23.0998L55.6479 19.3679L37.2026 0.838318H0.142883L10.7554 11.4508V11.4787H32.7665L40.5434 19.2556L29.1729 30.6263L21.396 22.8494V16.8156H10.7554V27.2599L29.1729 45.6772L21.6766 53.1737L33.6649 65.1617H85.8572L75.2447 54.6051V54.5953Z" />
</svg>
