<svg width="76" height="100" viewBox="0 0 76 100" fill="none" xmlns="http://www.w3.org/2000/svg">
  <path d="M19.2567 0H29.9988V4.49217H23.7488V8.98438H29.9988V13.4766H19.2567V0Z" />
  <path d="M32.1471 0H42.8896V3.90625H36.6396V4.6875H42.8896V13.6719H32.1471V9.57033H38.3971V8.78908H32.1471V0Z" />
  <path d="M45.0379 0H55.78V3.90625H49.53V4.6875H55.78V13.6719H45.0379V9.57033H51.2879V8.78908H45.0379V0Z" />
  <path fill-rule="evenodd" clip-rule="evenodd" d="M37.9633 100L9.03079 91.9679L0.5 19.6523H75.5L66.9754 91.9567L37.9633 100ZM17.364 52.3862L18.1589 61.2554H48.8971L47.8675 72.7579L37.9754 75.4279L37.9667 75.4308L28.089 72.7637L27.4575 65.69H18.5542L19.7968 79.6162L37.9646 84.6596L56.1579 79.6158L58.3754 54.7679L58.5921 52.3862L60.1933 34.4345H15.7669L16.5732 43.3037H50.4733L49.6662 52.3862H17.364Z" />
</svg>
