<svg width="76" height="100" viewBox="0 0 76 100" fill="none" xmlns="http://www.w3.org/2000/svg">
  <path d="M9.16904 0H13.6762V4.45312H17.7993V0H22.3067V13.4852H17.7995V8.96954H13.6765V13.4852H9.1692L9.16904 0Z" />
  <path d="M28.2342 4.47188H24.2662V0H36.7116V4.47188H32.7416V13.4852H28.2344L28.2342 4.47188Z" />
  <path d="M38.6867 0H43.3867L46.2775 4.73829L49.1654 0H53.8671V13.4852H49.3783V6.80117L46.2775 11.5959H46.2L43.0967 6.80117V13.4852H38.6867V0Z" />
  <path d="M56.1104 0H60.6192V9.02775H66.9575V13.4852H56.1104V0Z" />
  <path fill-rule="evenodd" clip-rule="evenodd" d="M9.02471 91.9683L0.5 19.6524H75.5L66.9696 91.9571L37.9571 100L9.02471 91.9683ZM26.2643 52.3862L25.4538 43.3037H59.3929L60.1871 34.4345H15.7608L18.153 61.2554H48.8908L47.8617 72.7579L37.9696 75.4279L37.9625 75.4308L28.0849 72.7637L27.4535 65.69H18.5501L19.7927 79.6162L37.9608 84.6596L56.1521 79.6158L58.3696 54.7679L58.5858 52.3862H26.2643Z" />
</svg>
