<svg width="94" height="62" viewBox="0 0 94 62" fill="none" xmlns="http://www.w3.org/2000/svg">
  <path d="M78.3512 0.911258C81.5435 1.6539 84.4443 3.32546 86.6875 5.71501C87.9232 7.00824 88.9961 8.44766 89.8825 10.0013C89.9238 10.17 84.13 14.0625 80.6162 16.2338C80.4887 16.32 79.9825 15.7688 79.4087 14.9213C78.7669 13.8179 77.8558 12.8952 76.7606 12.2394C75.6655 11.5837 74.4219 11.2162 73.1462 11.1713C69.1075 10.8938 66.505 13.0088 66.5238 16.545C66.4889 17.4138 66.687 18.2761 67.0975 19.0425C67.9863 20.88 69.6362 21.9825 74.8187 24.2288C84.3587 28.335 88.4538 31.0425 90.9812 34.89C92.4099 37.321 93.2898 40.035 93.5593 42.8418C93.8288 45.6486 93.4813 48.4804 92.5412 51.1388C91.2493 54.0541 89.2006 56.5706 86.6077 58.4268C84.0149 60.2831 80.9724 61.4115 77.7962 61.695C74.42 62.0823 71.0087 62.047 67.6413 61.59C62.4831 60.7424 57.7315 58.2668 54.0812 54.525C52.702 52.9719 51.5344 51.2432 50.6087 49.3838C50.998 49.0942 51.4078 48.8335 51.835 48.6038C52.4275 48.2663 54.67 46.9763 56.785 45.75L60.625 43.5L61.4275 44.67C62.7791 46.6029 64.4996 48.2495 66.49 49.515C68.5001 50.6176 70.777 51.14 73.0667 51.0242C75.3564 50.9083 77.569 50.1586 79.4575 48.8588C80.4317 47.9092 81.0407 46.6472 81.1778 45.2938C81.3149 43.9404 80.9714 42.5819 80.2075 41.4563C79.1725 39.975 77.0575 38.73 71.0462 36.1238C66.3327 34.5344 62.0394 31.9 58.4875 28.4175C56.796 26.4899 55.5467 24.2154 54.8275 21.7538C54.2956 18.9494 54.2171 16.0779 54.595 13.2488C55.3007 9.99316 56.9901 7.0332 59.4345 4.76998C61.8788 2.50677 64.9598 1.04971 68.26 0.596259C71.6205 0.194694 75.0223 0.30088 78.3512 0.911258ZM47.065 6.47251L47.1062 11.925H29.7437V61.23H17.5V11.9363H0.137499V6.58126C0.0913223 4.7474 0.141391 2.91237 0.287499 1.08376C0.351249 0.997506 10.9075 0.956256 23.7062 0.978756L46.9975 1.04251L47.065 6.47251Z" />
</svg>
