<svg width="91" height="100" viewBox="0 0 91 100" fill="none" xmlns="http://www.w3.org/2000/svg">
  <path d="M87.4667 77.0833L46.9917 100V82.1417L72.1917 68.25L87.4667 77.0833ZM90.2417 74.6042V26.6042L75.4584 35.2333V65.9875L90.2417 74.5208V74.6042ZM2.94169 77.0833L43.4167 100V82.1417L18.2167 68.25L2.94169 77.0833ZM0.166687 74.6042V26.6042L14.95 35.2333V65.9875L0.166687 74.6042ZM1.85419 23.5125L43.4208 0V17.2625L16.6334 32.0458L1.85419 23.5125ZM88.5583 23.5125L46.9917 0V17.2625L73.775 32.0458L88.5583 23.5125ZM43.4208 78.075L18.5375 64.3792V37.1958L43.4375 51.5792L43.4208 78.075ZM46.9917 78.075L71.8917 64.3833V37.2L46.9917 51.5833V78.075ZM20.2042 34.125L45.2042 20.3333L70.2042 34.125L45.2042 48.5125L20.2042 34.125Z" />
</svg>
